<?xml version="1.0" encoding="UTF-8" standalone="no"?>
<!DOCTYPE svg PUBLIC "-//W3C//DTD SVG 1.1//EN"
 "http://www.w3.org/Graphics/SVG/1.1/DTD/svg11.dtd">
<!-- Generated by graphviz version 2.49.3 (20211023.0002)
 -->
<!-- Title: graphname Pages: 1 -->
<svg width="1136pt" height="367pt"
 viewBox="0.00 0.00 1135.62 367.48" xmlns="http://www.w3.org/2000/svg" xmlns:xlink="http://www.w3.org/1999/xlink">
<g id="graph0" class="graph" transform="scale(1 1) rotate(0) translate(4 363.48)">
<title>graphname</title>
<polygon fill="white" stroke="transparent" points="-4,4 -4,-363.48 1131.62,-363.48 1131.62,4 -4,4"/>
<!-- 0 -->
<g id="node1" class="node">
<title>0</title>
<polygon fill="lightgrey" stroke="black" points="569.31,-359.48 432.31,-359.48 432.31,-323.48 569.31,-323.48 569.31,-359.48"/>
<text text-anchor="middle" x="500.81" y="-337.78" font-family="Times New Roman,serif" font-size="14.00">지난 게시일&lt;=36</text>
</g>
<!-- 1 -->
<g id="node2" class="node">
<title>1</title>
<polygon fill="lightgrey" stroke="black" points="476.81,-287.48 354.81,-287.48 354.81,-251.48 476.81,-251.48 476.81,-287.48"/>
<text text-anchor="middle" x="415.81" y="-265.78" font-family="Times New Roman,serif" font-size="14.00">본문길이&lt;=934</text>
</g>
<!-- 0&#45;&#45;1 -->
<g id="edge1" class="edge">
<title>0&#45;&#45;1</title>
<path fill="none" stroke="red" stroke-width="5" d="M479.8,-323.18C466.62,-312.33 449.71,-298.4 436.58,-287.58"/>
</g>
<!-- 2 -->
<g id="node3" class="node">
<title>2</title>
<polygon fill="none" stroke="black" points="675.31,-287.48 532.31,-287.48 532.31,-251.48 675.31,-251.48 675.31,-287.48"/>
<text text-anchor="middle" x="603.81" y="-265.78" font-family="Times New Roman,serif" font-size="14.00">지난 게시일&lt;=759</text>
</g>
<!-- 0&#45;&#45;2 -->
<g id="edge2" class="edge">
<title>0&#45;&#45;2</title>
<path fill="none" stroke="black" stroke-dasharray="1,5" d="M526.01,-323.36C541.97,-312.51 562.54,-298.53 578.52,-287.67"/>
</g>
<!-- 3 -->
<g id="node4" class="node">
<title>3</title>
<polygon fill="lightgrey" stroke="black" points="261.81,-215.48 139.81,-215.48 139.81,-179.48 261.81,-179.48 261.81,-215.48"/>
<text text-anchor="middle" x="200.81" y="-193.78" font-family="Times New Roman,serif" font-size="14.00">본문길이&lt;=468</text>
</g>
<!-- 1&#45;&#45;3 -->
<g id="edge3" class="edge">
<title>1&#45;&#45;3</title>
<path fill="none" stroke="red" stroke-width="5" d="M363.49,-251.45C330.06,-240.56 286.85,-226.49 253.37,-215.59"/>
</g>
<!-- 4 -->
<g id="node5" class="node">
<title>4</title>
<polygon fill="none" stroke="black" points="502.81,-215.48 328.81,-215.48 328.81,-179.48 502.81,-179.48 502.81,-215.48"/>
<text text-anchor="middle" x="415.81" y="-193.78" font-family="Times New Roman,serif" font-size="14.00">5일동안 방문자&lt;=2864</text>
</g>
<!-- 1&#45;&#45;4 -->
<g id="edge4" class="edge">
<title>1&#45;&#45;4</title>
<path fill="none" stroke="black" stroke-dasharray="1,5" d="M415.81,-251.18C415.81,-240.33 415.81,-226.4 415.81,-215.58"/>
</g>
<!-- 5 -->
<g id="node6" class="node">
<title>5</title>
<polygon fill="none" stroke="black" points="668.81,-215.48 538.81,-215.48 538.81,-179.48 668.81,-179.48 668.81,-215.48"/>
<text text-anchor="middle" x="603.81" y="-193.78" font-family="Times New Roman,serif" font-size="14.00">이미지 개수&lt;=9</text>
</g>
<!-- 2&#45;&#45;5 -->
<g id="edge5" class="edge">
<title>2&#45;&#45;5</title>
<path fill="none" stroke="black" stroke-dasharray="1,5" d="M603.81,-251.18C603.81,-240.33 603.81,-226.4 603.81,-215.58"/>
</g>
<!-- 6 -->
<g id="node7" class="node">
<title>6</title>
<polygon fill="none" stroke="black" points="994.81,-215.48 830.81,-215.48 830.81,-179.48 994.81,-179.48 994.81,-215.48"/>
<text text-anchor="middle" x="912.81" y="-193.78" font-family="Times New Roman,serif" font-size="14.00">키워드 언급개수&lt;=0</text>
</g>
<!-- 2&#45;&#45;6 -->
<g id="edge6" class="edge">
<title>2&#45;&#45;6</title>
<path fill="none" stroke="black" stroke-dasharray="1,5" d="M675.48,-252.24C724.15,-241.22 788.39,-226.67 837.76,-215.48"/>
</g>
<!-- 13 -->
<g id="node14" class="node">
<title>13</title>
<ellipse fill="lightgrey" stroke="black" cx="60.81" cy="-116.61" rx="60.62" ry="26.74"/>
<text text-anchor="middle" x="60.81" y="-120.41" font-family="Times New Roman,serif" font-size="14.00">30위 이상</text>
<text text-anchor="middle" x="60.81" y="-105.41" font-family="Times New Roman,serif" font-size="14.00">89%</text>
</g>
<!-- 3&#45;&#45;13 -->
<g id="edge7" class="edge">
<title>3&#45;&#45;13</title>
<path fill="none" stroke="red" stroke-width="5" d="M170.43,-179.37C148.96,-167.27 120.07,-151 97.34,-138.19"/>
</g>
<!-- 14 -->
<g id="node15" class="node">
<title>14</title>
<ellipse fill="none" stroke="black" cx="200.81" cy="-116.61" rx="60.62" ry="26.74"/>
<text text-anchor="middle" x="200.81" y="-120.41" font-family="Times New Roman,serif" font-size="14.00">30위 이상</text>
<text text-anchor="middle" x="200.81" y="-105.41" font-family="Times New Roman,serif" font-size="14.00">54%</text>
</g>
<!-- 3&#45;&#45;14 -->
<g id="edge8" class="edge">
<title>3&#45;&#45;14</title>
<path fill="none" stroke="black" stroke-dasharray="1,5" d="M200.81,-179.37C200.81,-168.95 200.81,-155.43 200.81,-143.69"/>
</g>
<!-- 9 -->
<g id="node10" class="node">
<title>9</title>
<polygon fill="yellow" stroke="black" points="365.81,-135.61 279.81,-135.61 279.81,-97.61 365.81,-97.61 365.81,-135.61"/>
<text text-anchor="middle" x="322.81" y="-120.41" font-family="Times New Roman,serif" font-size="14.00">30위 이하</text>
<text text-anchor="middle" x="322.81" y="-105.41" font-family="Times New Roman,serif" font-size="14.00">57%</text>
</g>
<!-- 4&#45;&#45;9 -->
<g id="edge9" class="edge">
<title>4&#45;&#45;9</title>
<path fill="none" stroke="black" stroke-dasharray="1,5" d="M395.63,-179.37C380.46,-166.5 359.71,-148.91 344.25,-135.79"/>
</g>
<!-- 10 -->
<g id="node11" class="node">
<title>10</title>
<polygon fill="green" stroke="black" points="511.81,-135.61 383.81,-135.61 383.81,-97.61 511.81,-97.61 511.81,-135.61"/>
<text text-anchor="middle" x="447.81" y="-120.41" font-family="Times New Roman,serif" font-size="14.00">가장 좋은 방법</text>
<text text-anchor="middle" x="447.81" y="-105.41" font-family="Times New Roman,serif" font-size="14.00">77%</text>
</g>
<!-- 4&#45;&#45;10 -->
<g id="edge10" class="edge">
<title>4&#45;&#45;10</title>
<path fill="none" stroke="black" stroke-dasharray="1,5" d="M422.75,-179.37C427.98,-166.5 435.11,-148.91 440.44,-135.79"/>
</g>
<!-- 7 -->
<g id="node8" class="node">
<title>7</title>
<polygon fill="yellow" stroke="black" points="615.81,-135.61 529.81,-135.61 529.81,-97.61 615.81,-97.61 615.81,-135.61"/>
<text text-anchor="middle" x="572.81" y="-120.41" font-family="Times New Roman,serif" font-size="14.00">30위 이하</text>
<text text-anchor="middle" x="572.81" y="-105.41" font-family="Times New Roman,serif" font-size="14.00">54%</text>
</g>
<!-- 5&#45;&#45;7 -->
<g id="edge11" class="edge">
<title>5&#45;&#45;7</title>
<path fill="none" stroke="black" stroke-dasharray="1,5" d="M597.08,-179.37C592.03,-166.5 585.11,-148.91 579.96,-135.79"/>
</g>
<!-- 8 -->
<g id="node9" class="node">
<title>8</title>
<polygon fill="none" stroke="black" points="819.31,-134.61 634.31,-134.61 634.31,-98.61 819.31,-98.61 819.31,-134.61"/>
<text text-anchor="middle" x="726.81" y="-112.91" font-family="Times New Roman,serif" font-size="14.00">제목에 키워드 포함&lt;=0</text>
</g>
<!-- 5&#45;&#45;8 -->
<g id="edge12" class="edge">
<title>5&#45;&#45;8</title>
<path fill="none" stroke="black" stroke-dasharray="1,5" d="M630.5,-179.37C651.13,-166.14 679.56,-147.91 700.17,-134.69"/>
</g>
<!-- 15 -->
<g id="node16" class="node">
<title>15</title>
<polygon fill="none" stroke="black" points="987.81,-134.61 837.81,-134.61 837.81,-98.61 987.81,-98.61 987.81,-134.61"/>
<text text-anchor="middle" x="912.81" y="-112.91" font-family="Times New Roman,serif" font-size="14.00">지난 게시일&lt;=2494</text>
</g>
<!-- 6&#45;&#45;15 -->
<g id="edge13" class="edge">
<title>6&#45;&#45;15</title>
<path fill="none" stroke="black" stroke-dasharray="1,5" d="M912.81,-179.37C912.81,-166.14 912.81,-147.91 912.81,-134.69"/>
</g>
<!-- 16 -->
<g id="node17" class="node">
<title>16</title>
<ellipse fill="none" stroke="black" cx="1066.81" cy="-116.61" rx="60.62" ry="26.74"/>
<text text-anchor="middle" x="1066.81" y="-120.41" font-family="Times New Roman,serif" font-size="14.00">30위 이상</text>
<text text-anchor="middle" x="1066.81" y="-105.41" font-family="Times New Roman,serif" font-size="14.00">80%</text>
</g>
<!-- 6&#45;&#45;16 -->
<g id="edge14" class="edge">
<title>6&#45;&#45;16</title>
<path fill="none" stroke="black" stroke-dasharray="1,5" d="M946.23,-179.37C970.29,-167.04 1002.82,-150.38 1028.03,-137.47"/>
</g>
<!-- 11 -->
<g id="node12" class="node">
<title>11</title>
<polygon fill="yellow" stroke="black" points="658.81,-45.87 572.81,-45.87 572.81,-7.87 658.81,-7.87 658.81,-45.87"/>
<text text-anchor="middle" x="615.81" y="-30.67" font-family="Times New Roman,serif" font-size="14.00">30위 이하</text>
<text text-anchor="middle" x="615.81" y="-15.67" font-family="Times New Roman,serif" font-size="14.00">52%</text>
</g>
<!-- 8&#45;&#45;11 -->
<g id="edge15" class="edge">
<title>8&#45;&#45;11</title>
<path fill="none" stroke="black" stroke-dasharray="1,5" d="M705.15,-98.48C686.09,-83.42 658.43,-61.56 638.95,-46.16"/>
</g>
<!-- 12 -->
<g id="node13" class="node">
<title>12</title>
<ellipse fill="none" stroke="black" cx="737.81" cy="-26.87" rx="60.62" ry="26.74"/>
<text text-anchor="middle" x="737.81" y="-30.67" font-family="Times New Roman,serif" font-size="14.00">30위 이상</text>
<text text-anchor="middle" x="737.81" y="-15.67" font-family="Times New Roman,serif" font-size="14.00">67%</text>
</g>
<!-- 8&#45;&#45;12 -->
<g id="edge16" class="edge">
<title>8&#45;&#45;12</title>
<path fill="none" stroke="black" stroke-dasharray="1,5" d="M728.98,-98.28C730.57,-85.59 732.76,-68.16 734.56,-53.82"/>
</g>
<!-- 17 -->
<g id="node18" class="node">
<title>17</title>
<ellipse fill="none" stroke="black" cx="900.81" cy="-26.87" rx="60.62" ry="26.74"/>
<text text-anchor="middle" x="900.81" y="-30.67" font-family="Times New Roman,serif" font-size="14.00">30위 이상</text>
<text text-anchor="middle" x="900.81" y="-15.67" font-family="Times New Roman,serif" font-size="14.00">70%</text>
</g>
<!-- 15&#45;&#45;17 -->
<g id="edge17" class="edge">
<title>15&#45;&#45;17</title>
<path fill="none" stroke="black" stroke-dasharray="1,5" d="M910.44,-98.28C908.71,-85.59 906.32,-68.16 904.36,-53.82"/>
</g>
<!-- 18 -->
<g id="node19" class="node">
<title>18</title>
<ellipse fill="none" stroke="black" cx="1040.81" cy="-26.87" rx="60.62" ry="26.74"/>
<text text-anchor="middle" x="1040.81" y="-30.67" font-family="Times New Roman,serif" font-size="14.00">30위 이상</text>
<text text-anchor="middle" x="1040.81" y="-15.67" font-family="Times New Roman,serif" font-size="14.00">56%</text>
</g>
<!-- 15&#45;&#45;18 -->
<g id="edge18" class="edge">
<title>15&#45;&#45;18</title>
<path fill="none" stroke="black" stroke-dasharray="1,5" d="M937.79,-98.48C958.02,-84.62 986.65,-64.99 1008.6,-49.95"/>
</g>
</g>
</svg>
